<?xml version="1.0" encoding="UTF-8" standalone="no"?>
<!-- Created with Inkscape (http://www.inkscape.org/) -->

<svg
   xmlns:dc="http://purl.org/dc/elements/1.1/"
   xmlns:cc="http://creativecommons.org/ns#"
   xmlns:rdf="http://www.w3.org/1999/02/22-rdf-syntax-ns#"
   xmlns:svg="http://www.w3.org/2000/svg"
   xmlns="http://www.w3.org/2000/svg"
   xmlns:sodipodi="http://sodipodi.sourceforge.net/DTD/sodipodi-0.dtd"
   xmlns:inkscape="http://www.inkscape.org/namespaces/inkscape"
   width="200"
   height="250"
   id="svg2"
   sodipodi:version="0.32"
   inkscape:version="0.47 r22583"
   sodipodi:docname="card_club_10.svg"
   inkscape:output_extension="org.inkscape.output.svg.inkscape"
   version="1.0">
  <defs
     id="defs4">
    <inkscape:perspective
       sodipodi:type="inkscape:persp3d"
       inkscape:vp_x="0 : 125 : 1"
       inkscape:vp_y="0 : 1000 : 0"
       inkscape:vp_z="200 : 125 : 1"
       inkscape:persp3d-origin="100 : 83.333333 : 1"
       id="perspective2942" />
  </defs>
  <sodipodi:namedview
     id="base"
     pagecolor="#ffffff"
     bordercolor="#666666"
     borderopacity="1.0"
     gridtolerance="10000"
     guidetolerance="10"
     objecttolerance="10"
     inkscape:pageopacity="0.0"
     inkscape:pageshadow="2"
     inkscape:zoom="2.8284271"
     inkscape:cx="79.106627"
     inkscape:cy="128.98756"
     inkscape:document-units="px"
     inkscape:current-layer="layer1"
     showgrid="true"
     inkscape:grid-points="true"
     inkscape:window-width="1383"
     inkscape:window-height="965"
     inkscape:window-x="1980"
     inkscape:window-y="18"
     width="200px"
     height="250px"
     showguides="true"
     inkscape:guide-bbox="true"
     inkscape:window-maximized="0">
    <inkscape:grid
       id="GridFromPre046Settings"
       type="xygrid"
       originx="0px"
       originy="0px"
       spacingx="1px"
       spacingy="1px"
       color="#0000ff"
       empcolor="#0000ff"
       opacity="0.2"
       empopacity="0.4"
       empspacing="5" />
  </sodipodi:namedview>
  <metadata
     id="metadata7">
    <rdf:RDF>
      <cc:Work
         rdf:about="">
        <dc:format>image/svg+xml</dc:format>
        <dc:type
           rdf:resource="http://purl.org/dc/dcmitype/StillImage" />
        <dc:title></dc:title>
      </cc:Work>
    </rdf:RDF>
  </metadata>
  <g
     inkscape:label="Layer 1"
     inkscape:groupmode="layer"
     id="layer1">
    <path
       style="fill:#ffffff;fill-opacity:1;fill-rule:evenodd;stroke:#000000;stroke-width:2;stroke-linecap:butt;stroke-linejoin:miter;stroke-opacity:1;stroke-miterlimit:4;stroke-dasharray:none"
       d="M 199,10 C 199,5 195,1 190,1 L 10,1 C 5,1 1,5 1,10 L 1,240 C 1,245 5,249 10,249 L 190,249 C 195,249 199,245 199,240 L 199,10 z "
       id="path3229"
       sodipodi:nodetypes="ccccccccc" />
    <path
       style="font-size:81.53663635px;font-style:normal;font-variant:normal;font-weight:normal;font-stretch:normal;text-align:center;line-height:125%;writing-mode:lr-tb;text-anchor:middle;fill:#000000;fill-opacity:1;stroke:#000000;stroke-width:2.54801989px;stroke-linecap:butt;stroke-linejoin:miter;stroke-opacity:1;font-family:Nimbus Roman No9 L"
       d="m 79.62392,84.514628 c -2.269882,0 -4.539765,0 -6.809647,0 0,-16.019012 0,-32.038024 0,-48.057036 -3.874386,3.904186 -8.607607,6.872159 -13.619294,9.091872 0,-2.430086 0,-4.860172 0,-7.290258 6.620008,-3.50803 12.694139,-8.594021 16.040502,-15.418473 1.462813,0 2.925626,0 4.388439,0 0,20.557965 0,41.11593 0,61.673895 z"
       id="path2981" />
    <path
       style="font-size:81.53663635px;font-style:normal;font-variant:normal;font-weight:normal;font-stretch:normal;text-align:center;line-height:125%;writing-mode:lr-tb;text-anchor:middle;fill:#000000;fill-opacity:1;stroke:#000000;stroke-width:2.54801989px;stroke-linecap:butt;stroke-linejoin:miter;stroke-opacity:1;font-family:Nimbus Roman No9 L"
       d="m 97.10201,54.222354 c 0.107717,-8.657273 0.558203,-18.030984 5.81808,-25.308961 4.5192,-6.581084 14.41233,-7.998334 20.88871,-3.552351 5.52835,3.938416 7.76429,10.884816 8.74848,17.317323 0.9067,6.883058 0.88592,13.885824 0.29275,20.795128 -0.7276,6.138376 -2.24383,12.598494 -6.42917,17.349122 -5.53682,6.171836 -16.20302,6.438765 -22.00261,0.499134 C 99.968667,76.979083 98.584595,70.607187 97.704901,64.681131 97.256903,61.214288 97.122505,57.715315 97.10201,54.222354 z m 6.9988,0 c 0.17147,6.851538 -0.0192,14.122142 3.28279,20.34819 2.27143,4.066624 8.04983,6.380964 12.11929,3.533691 4.98403,-3.296727 5.96401,-9.694534 6.43689,-15.209796 0.46202,-8.890272 0.88292,-18.053632 -1.78785,-26.666027 -1.56592,-4.850792 -7.27282,-8.798219 -12.29451,-6.526184 -4.93439,2.216611 -6.36611,8.062419 -7.06314,12.936209 -0.53402,3.83608 -0.69033,7.714232 -0.69347,11.583917 z"
       id="path2983" />
    <path
       style="fill:#000000;fill-opacity:1;fill-rule:evenodd;stroke:#000000;stroke-width:2.54950976px;stroke-linecap:butt;stroke-linejoin:miter;stroke-opacity:1"
       d="m 85,165 c -9.190194,-5.60932 -12.80772,-17.35142 -12.5,-27.625 0.08462,-9.54148 6.693516,-18.76419 16.248016,-20.74025 10.511224,-2.4875 23.879344,-1.00949 30.181424,8.85172 6.55569,11.15222 3.75363,26.20543 -4.32253,35.83977 -1.84684,2.37201 -6.74632,4.90866 -1.8774,1.82158 8.98789,-5.09193 20.94977,-8.45592 30.48353,-2.90166 8.71311,5.78995 9.80443,17.48746 9.08618,27.04171 -0.65259,10.3098 -7.74032,20.49495 -18.31179,22.38122 -12.52181,2.9352 -26.67236,-5.68577 -28.63121,-18.66441 0.78399,-3.84389 -3.05267,-2.31084 -5.35622,-2.60468 1.64085,13.91703 3.42864,28.25234 9.65209,40.97937 0.0964,1.34869 -3.93522,0.27909 -5.55802,0.62063 -6.364689,0 -12.72938,0 -19.09407,0 6.397964,-12.44464 8.148233,-26.63264 9.87793,-40.3457 0.840598,-1.83332 -5.55596,-2.13358 -5.027724,0.0672 -1.424484,13.2543 -15.380193,22.04998 -28.066377,20.29692 -10.808277,-0.80701 -19.807121,-9.82977 -21.249771,-20.44731 -1.801806,-9.99477 0.407835,-22.42646 10.241928,-27.47419 10.402878,-5.11034 23.378051,-3.52905 33.215103,2.18045 L 85,165 z"
       id="path5144" />
  </g>
</svg>
